<svg version="1.1" id="Layer_1" xmlns="http://www.w3.org/2000/svg" xmlns:xlink="http://www.w3.org/1999/xlink" x="0px" y="0px"
	 width="100%" viewBox="0 0 2000 2000" enable-background="new 0 0 2000 2000" xml:space="preserve">
<path fill="#FF5858" opacity="1.000000" stroke="none" 
	d="
M1038.319702,2000.776611 
	C1013.645752,2001.000000 989.291565,2001.000000 964.468628,2001.000000 
	C963.603882,2000.679688 963.165344,2000.496216 962.641785,2000.507080 
	C947.907959,2000.815308 933.199097,1999.905884 918.480164,1999.537842 
	C899.372131,1999.060547 880.418823,1996.719727 861.514221,1994.065674 
	C821.888428,1988.502319 782.678650,1980.806030 744.011475,1970.479614 
	C695.003601,1957.391235 647.166870,1940.932495 600.671387,1920.583008 
	C542.968750,1895.328857 488.020294,1865.113037 436.025208,1829.567993 
	C407.548859,1810.100952 380.263000,1789.076172 353.840149,1766.877808 
	C325.615173,1743.165527 298.984772,1717.778442 273.547760,1691.173462 
	C250.073654,1666.621216 228.104797,1640.714844 207.284576,1613.840332 
	C180.616119,1579.416992 156.265823,1543.428223 134.376205,1505.811768 
	C112.488037,1468.197998 93.090744,1429.319580 76.203514,1389.175171 
	C54.636883,1337.906982 37.498589,1285.221313 24.782984,1231.100830 
	C16.855215,1197.358521 10.921207,1163.253906 6.413234,1128.872559 
	C3.568378,1107.175415 2.513671,1085.424072 1.895270,1063.594849 
	C1.678470,1055.941895 1.672044,1048.289062 1.223323,1040.319580 
	C1.000000,1014.312439 1.000000,988.624878 1.000000,962.468628 
	C2.306495,954.438477 1.711985,946.768677 1.844385,939.185242 
	C3.146053,864.631592 17.804396,792.315063 37.976772,720.923462 
	C51.638973,672.571899 69.529144,625.772827 90.643242,580.189819 
	C109.012749,540.532104 129.853806,502.228729 153.195450,465.279510 
	C171.627960,436.101318 191.502747,407.933838 212.915924,380.880402 
	C226.240845,364.045715 240.098480,347.646149 254.400589,331.607269 
	C272.047485,311.817444 290.665619,292.980774 309.735107,274.615051 
	C330.355103,254.756058 352.063751,236.089630 374.383118,218.123932 
	C414.439209,185.881256 456.793243,156.991943 501.320862,131.366287 
	C537.293823,110.663857 574.447998,92.242271 612.777954,76.209084 
	C637.079773,66.043808 661.677185,56.685577 686.676575,48.445919 
	C739.310852,31.097967 793.052917,18.197670 847.854431,9.928552 
	C873.086609,6.121199 898.366699,2.649053 924.002563,2.393882 
	C936.780823,2.266691 949.565735,1.479757 962.680237,1.223377 
	C988.020935,1.000000 1013.041809,1.000000 1038.531372,1.000000 
	C1047.065186,2.282454 1055.238037,1.777046 1063.313721,1.830518 
	C1104.486694,2.103137 1144.987549,7.980041 1185.365112,15.271936 
	C1231.688599,23.637615 1277.080933,35.631702 1321.680542,50.566250 
	C1355.503174,61.892067 1388.566528,75.197617 1420.946167,90.208565 
	C1471.389526,113.593697 1519.663086,140.788864 1565.563843,172.159302 
	C1594.178223,191.715622 1621.606079,212.818481 1648.163574,235.116882 
	C1676.143311,258.609619 1702.489990,283.804413 1727.761597,310.106049 
	C1750.486816,333.757507 1771.794922,358.702087 1791.975220,384.581116 
	C1809.704712,407.317139 1826.484009,430.737732 1842.162720,454.935181 
	C1857.384766,478.428253 1871.630615,502.493927 1884.864014,527.175781 
	C1904.570801,563.931519 1922.031860,601.704468 1937.037476,640.608276 
	C1955.719238,689.042725 1970.399658,738.666687 1981.332275,789.421509 
	C1988.141479,821.032837 1993.093140,852.934448 1997.143066,884.992432 
	C1999.068604,900.234741 1999.400146,915.585632 1999.939087,930.910400 
	C2000.307373,941.385742 2000.772583,951.869385 2000.776611,962.680298 
	C2001.000000,988.020935 2001.000000,1013.041809 2001.000000,1038.531372 
	C1999.717285,1047.065186 2000.220947,1055.238159 2000.169922,1063.313599 
	C1999.910400,1104.315308 1994.150391,1144.666992 1986.813965,1184.860229 
	C1979.085327,1227.200317 1968.465942,1268.803955 1955.233765,1309.767944 
	C1944.160522,1344.048340 1931.213013,1377.579102 1916.516357,1410.457886 
	C1892.250610,1464.743774 1863.366577,1516.451050 1829.862793,1565.560547 
	C1809.198608,1595.849854 1786.840942,1624.857422 1763.039917,1652.760864 
	C1740.750366,1678.892090 1717.053833,1703.703491 1692.252686,1727.416260 
	C1667.460327,1751.120728 1641.425903,1773.446289 1614.249878,1794.414062 
	C1580.047729,1820.802979 1544.410889,1845.067139 1507.091309,1866.833496 
	C1471.367310,1887.669189 1434.515869,1906.259766 1396.539185,1922.668701 
	C1372.048096,1933.250366 1347.173218,1942.812988 1321.920166,1951.330322 
	C1286.062866,1963.424072 1249.602173,1973.410645 1212.575439,1981.338745 
	C1183.730469,1987.514893 1154.674194,1992.391357 1125.418091,1996.021729 
	C1110.001953,1997.934570 1094.533936,1999.288330 1078.943970,1999.559937 
	C1065.513916,1999.793823 1052.082275,2000.482910 1038.319702,2000.776611 
z"/>
<path fill="#4C6971" opacity="1.000000" stroke="none" 
	d="
M1038.468628,2001.000000 
	C1038.710693,1999.661255 1040.020020,1999.963135 1041.099731,2000.033325 
	C1051.250732,2000.694824 1061.364136,1999.515991 1071.427734,1998.808960 
	C1087.189575,1997.701416 1102.941284,1996.199097 1118.651123,1994.217773 
	C1131.384888,1992.611694 1144.096802,1990.919678 1156.798340,1989.077271 
	C1175.670410,1986.339844 1194.413086,1982.881714 1213.026611,1978.822144 
	C1249.472412,1970.873535 1285.437622,1961.096069 1320.775146,1949.103027 
	C1351.158081,1938.791504 1381.000977,1927.113892 1410.293701,1913.988770 
	C1429.280151,1905.481689 1447.993164,1896.408081 1466.380371,1886.732178 
	C1490.416260,1874.083862 1513.862427,1860.371582 1536.833740,1845.825684 
	C1561.182007,1830.407959 1584.746826,1813.880981 1607.686279,1796.499146 
	C1623.177979,1784.760498 1638.157349,1772.328369 1652.948242,1759.674683 
	C1677.830322,1738.388184 1701.458252,1715.789062 1724.125977,1692.209595 
	C1738.100586,1677.672607 1751.467651,1662.553345 1764.530884,1647.151855 
	C1784.153320,1624.017090 1802.610107,1600.019165 1820.153076,1575.301147 
	C1839.598145,1547.902954 1857.493164,1519.488525 1873.829346,1490.155518 
	C1890.999512,1459.324951 1906.639526,1427.715698 1920.531006,1395.220947 
	C1931.530762,1369.490845 1941.662231,1343.447388 1950.422852,1316.910889 
	C1961.958618,1281.968018 1971.659424,1246.507812 1979.221680,1210.440918 
	C1983.166992,1191.623779 1986.539185,1172.718506 1989.773926,1153.792847 
	C1992.156128,1139.855103 1993.292725,1125.705444 1995.013550,1111.653687 
	C1997.021362,1095.256714 1998.086792,1078.789673 1999.281006,1062.319946 
	C1999.833496,1054.698486 1999.247681,1047.059937 2000.647461,1039.245850 
	C2001.000000,1358.094116 2000.989502,1677.188354 2001.114502,1996.282471 
	C2001.116211,2000.402832 2000.207520,2001.107666 1996.219727,2001.106201 
	C1677.125610,2000.990723 1358.031372,2001.000000 1038.468628,2001.000000 
z"/>
<path fill="#4C6971" opacity="1.000000" stroke="none" 
	d="
M1.000000,1040.468628 
	C2.489569,1040.880127 2.005188,1042.370239 1.966151,1043.600708 
	C1.523534,1057.551392 3.046476,1071.430664 4.206767,1085.264038 
	C5.800947,1104.270386 7.927892,1123.248535 10.750916,1142.154785 
	C13.737240,1162.155029 16.997330,1182.084229 20.959627,1201.909668 
	C25.596008,1225.108032 31.110434,1248.100464 37.496895,1270.867188 
	C43.798382,1293.331177 50.809830,1315.580078 58.741398,1337.541260 
	C67.572899,1361.994263 77.374458,1386.031982 87.853516,1409.824707 
	C96.176834,1428.722900 105.366440,1447.182617 114.884697,1465.474976 
	C127.577858,1489.869019 141.493835,1513.567261 156.187027,1536.830688 
	C171.576248,1561.196289 188.070618,1584.785767 205.509445,1607.683960 
	C215.785049,1621.176392 226.654449,1634.241333 237.555328,1647.270630 
	C260.167664,1674.297852 284.494476,1699.677490 309.784882,1724.137695 
	C324.281403,1738.158447 339.470947,1751.448730 354.855835,1764.527710 
	C376.963257,1783.321533 399.884521,1801.028076 423.455231,1817.903809 
	C447.415405,1835.058594 472.245300,1850.921875 497.674133,1865.786499 
	C521.887207,1879.940430 546.712158,1893.027222 572.098938,1904.958862 
	C605.907532,1920.848755 640.392517,1935.082031 675.791626,1947.151245 
	C708.319397,1958.241577 741.269470,1967.798584 774.679810,1975.698486 
	C799.128540,1981.479492 823.854919,1986.116211 848.701477,1989.834106 
	C865.948547,1992.414673 883.257874,1994.708984 900.677490,1996.119995 
	C913.514160,1997.159790 926.346008,1998.241333 939.179871,1999.266479 
	C947.308044,1999.915649 955.435913,1999.295532 963.754150,2000.647461 
	C644.572632,2001.000000 325.145264,2000.989502 5.717943,2001.114502 
	C1.598330,2001.116089 0.892299,2000.208740 0.893747,1996.220093 
	C1.009358,1677.792480 1.000000,1359.364868 1.000000,1040.468628 
z"/>
<path fill="#4C6971" opacity="1.000000" stroke="none" 
	d="
M2001.000000,962.531372 
	C1999.510376,962.119995 1999.991577,960.628906 2000.034424,959.399475 
	C2000.531616,945.114136 1998.977173,930.901794 1997.793823,916.736145 
	C1996.205933,897.729431 1994.071289,878.751831 1991.249023,859.845276 
	C1988.263428,839.845154 1984.982422,819.920166 1981.045776,800.089905 
	C1976.438843,776.883972 1970.842163,753.911316 1964.496094,731.136536 
	C1958.234009,708.662354 1951.208862,686.415588 1943.255005,664.462585 
	C1934.399414,640.020569 1924.719604,615.934448 1914.149658,592.176697 
	C1905.892700,573.617737 1897.002808,555.373596 1887.621338,537.389099 
	C1874.751831,512.718567 1860.712646,488.703186 1845.820557,465.169952 
	C1830.410522,440.818390 1813.925903,417.224365 1796.505615,394.312286 
	C1784.740967,378.838867 1772.312622,363.858734 1759.680786,349.050293 
	C1738.318848,324.007629 1715.513428,300.350800 1691.869385,277.509186 
	C1677.483765,263.611786 1662.395142,250.461243 1647.155273,237.470581 
	C1625.069824,218.644653 1602.115356,200.982224 1578.548706,184.100845 
	C1554.591309,166.939743 1529.751709,151.089951 1504.329712,136.210632 
	C1478.837891,121.290344 1452.654785,107.582451 1425.901001,95.074387 
	C1394.455566,80.372864 1362.299683,67.373474 1329.503906,55.894222 
	C1295.964722,44.154743 1261.809448,34.632439 1227.322266,26.298286 
	C1202.898804,20.396132 1178.146362,15.877801 1153.298584,12.178597 
	C1136.051880,9.610985 1118.757812,7.200415 1101.325684,5.868490 
	C1088.486572,4.887495 1075.659180,3.736641 1062.821411,2.735539 
	C1055.029663,2.127938 1047.231323,2.683006 1039.245850,1.352458 
	C1358.094116,1.000000 1677.188232,1.010386 1996.282349,0.885428 
	C2000.402466,0.883815 2001.107788,1.792045 2001.106323,5.780209 
	C2000.990723,324.541016 2001.000000,643.301819 2001.000000,962.531372 
z"/>
<path fill="#4C6971" opacity="1.000000" stroke="none" 
	d="
M962.531372,1.000000 
	C962.119934,2.489570 960.629028,2.008472 959.399475,1.965688 
	C945.114197,1.468589 930.901855,3.022559 916.736267,4.206144 
	C897.729675,5.794219 878.752075,7.928368 859.845703,10.750957 
	C839.845581,13.736825 819.916687,16.997654 800.091370,20.959412 
	C776.893127,25.595203 753.901123,31.110418 731.134521,37.496143 
	C708.670654,43.796951 686.422363,50.809170 664.461487,58.740276 
	C640.008606,67.571373 615.981079,77.396645 592.175293,87.844299 
	C573.568542,96.010269 555.395447,105.041573 537.391663,114.384544 
	C512.692566,127.201950 488.682800,141.254074 465.171570,156.184006 
	C440.847015,171.630463 417.193542,188.027847 394.300995,205.480682 
	C378.840393,217.267532 363.868713,229.699936 349.042206,242.310593 
	C323.710541,263.856354 299.866852,286.950836 276.814819,310.850342 
	C261.097473,327.145508 246.135696,344.155151 231.699707,361.639343 
	C215.124878,381.714050 199.184052,402.251221 184.086899,423.443512 
	C166.987961,447.445801 151.088409,472.249847 136.209549,497.672089 
	C121.289742,523.164246 107.528305,549.323425 95.085960,576.106628 
	C80.047043,608.479187 66.563263,641.503174 54.925083,675.296631 
	C43.677963,707.954590 34.337708,741.135742 26.290712,774.678772 
	C20.428965,799.112854 15.877428,823.856812 12.178106,848.704529 
	C9.610445,865.950989 7.202056,883.245056 5.868517,900.676758 
	C4.886326,913.515808 3.710107,926.339600 2.737888,939.181763 
	C2.173648,946.634949 2.660594,954.103027 1.352440,961.754272 
	C1.000000,643.239197 1.010414,324.478363 0.885410,5.717602 
	C0.883794,1.597213 1.792362,0.892352 5.780321,0.893797 
	C324.541077,1.009332 643.301880,1.000000 962.531372,1.000000 
z"/>
<path fill="#FFFFFF" opacity="1.000000" stroke="none" 
	d="
M1064.052368,722.000000 
	C1064.052612,643.839233 1064.054077,566.178406 1064.051636,488.517639 
	C1064.051270,476.673767 1064.727173,464.911469 1066.935425,453.222534 
	C1069.030762,442.131805 1075.503784,435.752197 1086.210815,432.785187 
	C1101.359375,428.587372 1116.914917,428.866486 1132.354126,428.319763 
	C1152.333252,427.612305 1172.341309,427.747131 1192.333862,427.364899 
	C1195.741333,427.299744 1197.355469,428.220642 1196.866333,431.821075 
	C1196.688477,433.130127 1196.838257,434.483673 1196.838257,435.816895 
	C1196.838257,718.128845 1196.831787,1000.440735 1196.848877,1282.752686 
	C1196.850464,1309.597412 1196.097046,1336.403809 1193.049438,1363.096436 
	C1188.817139,1400.163574 1182.182373,1436.567871 1166.159180,1470.778931 
	C1140.532227,1525.495117 1097.388672,1557.333130 1038.830444,1568.803833 
	C996.788452,1577.039062 954.457703,1575.931885 912.162659,1570.272827 
	C887.648804,1566.992798 864.442200,1559.826172 843.572998,1546.276733 
	C816.897217,1528.957397 804.563049,1504.184937 805.198730,1472.406128 
	C805.668274,1448.932373 815.016663,1428.197021 823.603027,1407.128418 
	C824.729980,1404.363281 825.866760,1405.624268 827.197266,1406.717773 
	C846.003235,1422.173340 867.012451,1434.004028 889.226379,1443.666992 
	C921.157104,1457.556641 954.360229,1461.503662 988.694275,1455.189819 
	C1015.473389,1450.265259 1034.220703,1435.026978 1045.699097,1410.602051 
	C1052.628052,1395.857544 1055.900757,1380.198242 1058.227661,1364.086670 
	C1065.743042,1312.052979 1063.941528,1259.723511 1063.993530,1207.462891 
	C1064.154297,1045.808716 1064.052368,884.154297 1064.052368,722.000000 
z"/>
</svg>